<mxfile host="65bd71144e">
    <diagram id="a9Qk-jbRv7WKrWizsll0" name="PÃ¡gina-1">
        <mxGraphModel dx="1064" dy="516" grid="0" gridSize="10" guides="1" tooltips="1" connect="1" arrows="1" fold="1" page="1" pageScale="1" pageWidth="827" pageHeight="1169" background="#ffffff" math="0" shadow="1">
            <root>
                <mxCell id="0"/>
                <mxCell id="1" parent="0"/>
                <mxCell id="13" value="Channel" style="shape=umlLifeline;perimeter=lifelinePerimeter;whiteSpace=wrap;html=1;container=1;collapsible=0;recursiveResize=0;outlineConnect=0;labelBackgroundColor=#FCFCFC;strokeColor=#36393d;fillColor=#eeeeee;fontColor=#050505;" vertex="1" parent="1">
                    <mxGeometry x="560" y="120" width="100" height="70" as="geometry"/>
                </mxCell>
                <mxCell id="3" value="chatProtocol" style="shape=umlLifeline;perimeter=lifelinePerimeter;whiteSpace=wrap;html=1;container=1;collapsible=0;recursiveResize=0;outlineConnect=0;labelBackgroundColor=#FCFCFC;strokeColor=#36393d;fillColor=#eeeeee;fontColor=#050505;" vertex="1" parent="1">
                    <mxGeometry x="40" y="120" width="100" height="710" as="geometry"/>
                </mxCell>
                <mxCell id="15" value="" style="html=1;points=[];perimeter=orthogonalPerimeter;fillColor=#808080;labelBackgroundColor=#FCFCFC;fontColor=#050505;strokeColor=#080808;" vertex="1" parent="3">
                    <mxGeometry x="45" y="70" width="10" height="90" as="geometry"/>
                </mxCell>
                <mxCell id="36" value="" style="html=1;points=[];perimeter=orthogonalPerimeter;fillColor=#808080;labelBackgroundColor=#FCFCFC;fontColor=#050505;strokeColor=#080808;" vertex="1" parent="3">
                    <mxGeometry x="45" y="300" width="10" height="40" as="geometry"/>
                </mxCell>
                <mxCell id="54" value="" style="html=1;points=[];perimeter=orthogonalPerimeter;fillColor=#808080;labelBackgroundColor=#FCFCFC;fontColor=#050505;strokeColor=#080808;" vertex="1" parent="3">
                    <mxGeometry x="45" y="610" width="10" height="80" as="geometry"/>
                </mxCell>
                <mxCell id="57" value="" style="html=1;points=[];perimeter=orthogonalPerimeter;fillColor=#808080;labelBackgroundColor=#FCFCFC;fontColor=#050505;strokeColor=#080808;" vertex="1" parent="3">
                    <mxGeometry x="55" y="650" width="10" height="20" as="geometry"/>
                </mxCell>
                <mxCell id="56" value="display" style="html=1;verticalAlign=bottom;labelBackgroundColor=none;endArrow=block;endFill=1;fontColor=#080808;strokeColor=#0A0A0A;rounded=0;" edge="1" parent="3">
                    <mxGeometry x="0.3333" y="-20" width="160" relative="1" as="geometry">
                        <mxPoint x="56" y="640" as="sourcePoint"/>
                        <mxPoint x="66" y="660" as="targetPoint"/>
                        <mxPoint x="20" y="20" as="offset"/>
                        <Array as="points">
                            <mxPoint x="96" y="640"/>
                            <mxPoint x="96" y="660"/>
                        </Array>
                    </mxGeometry>
                </mxCell>
                <mxCell id="5" value="chatProtocol" style="shape=umlLifeline;perimeter=lifelinePerimeter;whiteSpace=wrap;html=1;container=1;collapsible=0;recursiveResize=0;outlineConnect=0;labelBackgroundColor=#FCFCFC;strokeColor=#36393d;fillColor=#eeeeee;fontColor=#080808;" vertex="1" parent="1">
                    <mxGeometry x="170" y="120" width="100" height="690" as="geometry"/>
                </mxCell>
                <mxCell id="6" value="" style="html=1;points=[];perimeter=orthogonalPerimeter;fillColor=#808080;labelBackgroundColor=#FCFCFC;fontColor=#050505;strokeColor=#080808;" vertex="1" parent="5">
                    <mxGeometry x="45" y="120" width="10" height="120" as="geometry"/>
                </mxCell>
                <mxCell id="38" value="" style="html=1;points=[];perimeter=orthogonalPerimeter;fillColor=#808080;labelBackgroundColor=#FCFCFC;fontColor=#050505;strokeColor=#080808;" vertex="1" parent="5">
                    <mxGeometry x="45" y="310" width="10" height="30" as="geometry"/>
                </mxCell>
                <mxCell id="9" value="action::MessagaAction" style="shape=umlLifeline;perimeter=lifelinePerimeter;whiteSpace=wrap;html=1;container=1;collapsible=0;recursiveResize=0;outlineConnect=0;labelBackgroundColor=#FCFCFC;strokeColor=#36393d;fillColor=#eeeeee;fontColor=#080808;" vertex="1" parent="1">
                    <mxGeometry x="280" y="120" width="130" height="690" as="geometry"/>
                </mxCell>
                <mxCell id="10" value="" style="html=1;points=[];perimeter=orthogonalPerimeter;fillColor=#808080;labelBackgroundColor=#FCFCFC;fontColor=#050505;strokeColor=#080808;" vertex="1" parent="9">
                    <mxGeometry x="60" y="130" width="10" height="60" as="geometry"/>
                </mxCell>
                <mxCell id="27" value="" style="ellipse;html=1;fillColor=#000000;labelBackgroundColor=#FCFCFC;fontColor=#080808;strokeColor=#080808;strokeWidth=3;" vertex="1" parent="9">
                    <mxGeometry x="60" y="170" width="4" height="4" as="geometry"/>
                </mxCell>
                <mxCell id="34" value="create(channelName, messageAction)" style="html=1;verticalAlign=bottom;labelBackgroundColor=none;endArrow=halfCircle;endFill=0;endSize=2;fontColor=#080808;strokeColor=#0A0A0A;exitX=1.1;exitY=0.833;exitDx=0;exitDy=0;exitPerimeter=0;" edge="1" parent="9" source="6">
                    <mxGeometry x="0.2473" width="160" relative="1" as="geometry">
                        <mxPoint x="-50" y="220" as="sourcePoint"/>
                        <mxPoint x="225" y="220" as="targetPoint"/>
                        <mxPoint as="offset"/>
                    </mxGeometry>
                </mxCell>
                <mxCell id="47" value="" style="html=1;points=[];perimeter=orthogonalPerimeter;fillColor=#808080;labelBackgroundColor=#FCFCFC;fontColor=#050505;strokeColor=#080808;" vertex="1" parent="9">
                    <mxGeometry x="60" y="500" width="10" height="45" as="geometry"/>
                </mxCell>
                <mxCell id="11" value="onMessageAction" style="shape=umlLifeline;perimeter=lifelinePerimeter;whiteSpace=wrap;html=1;container=1;collapsible=0;recursiveResize=0;outlineConnect=0;labelBackgroundColor=#FCFCFC;strokeColor=#36393d;fillColor=#eeeeee;fontColor=#080808;" vertex="1" parent="1">
                    <mxGeometry x="430" y="120" width="100" height="690" as="geometry"/>
                </mxCell>
                <mxCell id="12" value="" style="html=1;points=[];perimeter=orthogonalPerimeter;fillColor=#808080;labelBackgroundColor=#FCFCFC;fontColor=#050505;strokeColor=#080808;" vertex="1" parent="11">
                    <mxGeometry x="45" y="80" width="10" height="40" as="geometry"/>
                </mxCell>
                <mxCell id="42" value="" style="html=1;verticalAlign=bottom;labelBackgroundColor=none;endArrow=oval;endFill=0;endSize=8;fontColor=#080808;strokeColor=#0A0A0A;exitX=0.011;exitY=0.553;exitDx=0;exitDy=0;exitPerimeter=0;" edge="1" parent="11" source="2">
                    <mxGeometry width="160" relative="1" as="geometry">
                        <mxPoint x="125" y="330" as="sourcePoint"/>
                        <mxPoint x="85" y="330" as="targetPoint"/>
                        <Array as="points"/>
                    </mxGeometry>
                </mxCell>
                <mxCell id="48" value="" style="html=1;verticalAlign=bottom;labelBackgroundColor=none;endArrow=block;endFill=1;fontColor=#080808;strokeColor=#0A0A0A;entryX=1.6;entryY=0.156;entryDx=0;entryDy=0;entryPerimeter=0;" edge="1" parent="11">
                    <mxGeometry x="0.0435" y="8" width="160" relative="1" as="geometry">
                        <mxPoint x="64" y="510" as="sourcePoint"/>
                        <mxPoint x="-80" y="510.02" as="targetPoint"/>
                        <mxPoint as="offset"/>
                    </mxGeometry>
                </mxCell>
                <mxCell id="14" value="kernel" style="shape=umlLifeline;perimeter=lifelinePerimeter;whiteSpace=wrap;html=1;container=1;collapsible=0;recursiveResize=0;outlineConnect=0;labelBackgroundColor=#FCFCFC;strokeColor=#36393d;fillColor=#eeeeee;fontColor=#050505;" vertex="1" parent="1">
                    <mxGeometry x="700" y="120" width="100" height="680" as="geometry"/>
                </mxCell>
                <mxCell id="59" value="" style="html=1;points=[];perimeter=orthogonalPerimeter;fillColor=#808080;labelBackgroundColor=#FCFCFC;fontColor=#050505;strokeColor=#080808;" vertex="1" parent="14">
                    <mxGeometry x="45" y="330" width="10" height="30" as="geometry"/>
                </mxCell>
                <mxCell id="60" value="" style="html=1;points=[];perimeter=orthogonalPerimeter;fillColor=#808080;labelBackgroundColor=#FCFCFC;fontColor=#050505;strokeColor=#080808;" vertex="1" parent="14">
                    <mxGeometry x="45" y="400" width="10" height="30" as="geometry"/>
                </mxCell>
                <mxCell id="61" value="" style="html=1;points=[];perimeter=orthogonalPerimeter;fillColor=#808080;labelBackgroundColor=#FCFCFC;fontColor=#050505;strokeColor=#080808;" vertex="1" parent="14">
                    <mxGeometry x="45" y="465" width="10" height="30" as="geometry"/>
                </mxCell>
                <mxCell id="33" value="messageAction" style="edgeStyle=none;html=1;labelBackgroundColor=#FCFCFC;fontColor=#080808;strokeColor=#0A0A0A;" edge="1" parent="1" source="18">
                    <mxGeometry x="0.1549" y="-12" relative="1" as="geometry">
                        <mxPoint x="400" y="232" as="targetPoint"/>
                        <mxPoint as="offset"/>
                    </mxGeometry>
                </mxCell>
                <mxCell id="18" value="" style="ellipse;html=1;fillColor=#000000;labelBackgroundColor=#FCFCFC;fontColor=#080808;strokeColor=#080808;strokeWidth=3;" vertex="1" parent="1">
                    <mxGeometry x="471" y="230" width="4" height="4" as="geometry"/>
                </mxCell>
                <mxCell id="22" value="" style="endArrow=none;html=1;rounded=0;align=center;verticalAlign=top;endFill=0;labelBackgroundColor=none;endSize=6;fontColor=#080808;strokeColor=#0A0A0A;exitX=0.1;exitY=0.825;exitDx=0;exitDy=0;exitPerimeter=0;" edge="1" parent="1" source="12" target="18">
                    <mxGeometry relative="1" as="geometry">
                        <mxPoint x="420" y="233" as="targetPoint"/>
                        <mxPoint x="476" y="233" as="sourcePoint"/>
                    </mxGeometry>
                </mxCell>
                <mxCell id="23" value="create(action)" style="html=1;verticalAlign=bottom;labelBackgroundColor=none;endArrow=block;endFill=1;fontColor=#080808;strokeColor=#0A0A0A;" edge="1" parent="1" source="15" target="6">
                    <mxGeometry width="160" relative="1" as="geometry">
                        <mxPoint x="115" y="210" as="sourcePoint"/>
                        <mxPoint x="489.5" y="210" as="targetPoint"/>
                    </mxGeometry>
                </mxCell>
                <mxCell id="24" value="create(this...)" style="html=1;verticalAlign=bottom;labelBackgroundColor=none;endArrow=block;endFill=1;fontColor=#080808;strokeColor=#0A0A0A;exitX=0.9;exitY=0.208;exitDx=0;exitDy=0;exitPerimeter=0;" edge="1" parent="1" source="6" target="10">
                    <mxGeometry width="160" relative="1" as="geometry">
                        <mxPoint x="125" y="220" as="sourcePoint"/>
                        <mxPoint x="499.5" y="220" as="targetPoint"/>
                    </mxGeometry>
                </mxCell>
                <mxCell id="31" value="&lt;span style=&quot;background-color: rgb(252 , 252 , 252)&quot;&gt;action&lt;/span&gt;" style="edgeStyle=none;html=1;fontColor=#080808;strokeColor=#0A0A0A;" edge="1" parent="1" source="27">
                    <mxGeometry x="-0.2" y="-12" relative="1" as="geometry">
                        <mxPoint x="290" y="292" as="targetPoint"/>
                        <mxPoint as="offset"/>
                    </mxGeometry>
                </mxCell>
                <mxCell id="35" value="" style="html=1;verticalAlign=bottom;labelBackgroundColor=none;endArrow=oval;endFill=0;endSize=8;fontColor=#080808;strokeColor=#0A0A0A;exitX=0;exitY=0.463;exitDx=0;exitDy=0;exitPerimeter=0;" edge="1" parent="1">
                    <mxGeometry width="160" relative="1" as="geometry">
                        <mxPoint x="560" y="340.15999999999997" as="sourcePoint"/>
                        <mxPoint x="510" y="340" as="targetPoint"/>
                        <Array as="points"/>
                    </mxGeometry>
                </mxCell>
                <mxCell id="2" value="&lt;font style=&quot;background-color: rgb(8 , 8 , 8)&quot; color=&quot;#ffffff&quot;&gt;Channel&lt;/font&gt;" style="shape=umlFrame;whiteSpace=wrap;html=1;width=80;height=20;boundedLbl=1;verticalAlign=middle;align=left;spacingLeft=5;strokeColor=#080808;" vertex="1" parent="1">
                    <mxGeometry x="565" y="190" width="90" height="470" as="geometry"/>
                </mxCell>
                <mxCell id="37" value="sendMessage(message)" style="html=1;verticalAlign=bottom;labelBackgroundColor=none;endArrow=block;endFill=1;fontColor=#080808;strokeColor=#0A0A0A;entryX=0;entryY=0.3;entryDx=0;entryDy=0;entryPerimeter=0;exitX=0.5;exitY=0.45;exitDx=0;exitDy=0;exitPerimeter=0;" edge="1" parent="1" source="36">
                    <mxGeometry x="0.0435" y="8" width="160" relative="1" as="geometry">
                        <mxPoint x="105" y="438" as="sourcePoint"/>
                        <mxPoint x="215" y="438" as="targetPoint"/>
                        <mxPoint as="offset"/>
                    </mxGeometry>
                </mxCell>
                <mxCell id="16" value="create(this, display)" style="html=1;verticalAlign=bottom;labelBackgroundColor=none;endArrow=block;endFill=1;fontColor=#080808;strokeColor=#0A0A0A;exitX=0.9;exitY=0.133;exitDx=0;exitDy=0;exitPerimeter=0;" edge="1" parent="1" source="15" target="11">
                    <mxGeometry width="160" relative="1" as="geometry">
                        <mxPoint x="105" y="200" as="sourcePoint"/>
                        <mxPoint x="265" y="200" as="targetPoint"/>
                    </mxGeometry>
                </mxCell>
                <mxCell id="39" value="sendMessage(message)" style="html=1;verticalAlign=bottom;labelBackgroundColor=none;endArrow=block;endFill=1;fontColor=#080808;strokeColor=#0A0A0A;exitX=1;exitY=0.6;exitDx=0;exitDy=0;exitPerimeter=0;" edge="1" parent="1">
                    <mxGeometry x="0.4894" y="8" width="160" relative="1" as="geometry">
                        <mxPoint x="225" y="450" as="sourcePoint"/>
                        <mxPoint x="460" y="450" as="targetPoint"/>
                        <mxPoint as="offset"/>
                    </mxGeometry>
                </mxCell>
                <mxCell id="41" value="" style="html=1;verticalAlign=bottom;labelBackgroundColor=none;endArrow=halfCircle;endFill=0;endSize=2;fontColor=#080808;strokeColor=#0A0A0A;" edge="1" parent="1">
                    <mxGeometry width="160" relative="1" as="geometry">
                        <mxPoint x="221" y="450" as="sourcePoint"/>
                        <mxPoint x="511" y="450" as="targetPoint"/>
                    </mxGeometry>
                </mxCell>
                <mxCell id="43" value="" style="html=1;verticalAlign=bottom;labelBackgroundColor=none;endArrow=halfCircle;endFill=0;endSize=2;fontColor=#080808;strokeColor=#0A0A0A;" edge="1" parent="1">
                    <mxGeometry width="160" relative="1" as="geometry">
                        <mxPoint x="565" y="630" as="sourcePoint"/>
                        <mxPoint x="515" y="630" as="targetPoint"/>
                    </mxGeometry>
                </mxCell>
                <mxCell id="44" value="executeWith(message)" style="html=1;verticalAlign=bottom;labelBackgroundColor=none;endArrow=oval;endFill=0;endSize=8;fontColor=#080808;strokeColor=#0A0A0A;" edge="1" parent="1">
                    <mxGeometry width="160" relative="1" as="geometry">
                        <mxPoint x="354" y="630" as="sourcePoint"/>
                        <mxPoint x="507.5" y="630" as="targetPoint"/>
                        <Array as="points"/>
                    </mxGeometry>
                </mxCell>
                <mxCell id="49" value="isMessageComplete" style="html=1;verticalAlign=bottom;labelBackgroundColor=none;endArrow=block;endFill=1;fontColor=#080808;strokeColor=#0A0A0A;exitX=-0.1;exitY=0.911;exitDx=0;exitDy=0;exitPerimeter=0;" edge="1" parent="1">
                    <mxGeometry x="-0.0126" width="160" relative="1" as="geometry">
                        <mxPoint x="341" y="662.9949999999999" as="sourcePoint"/>
                        <mxPoint x="221.5" y="662.9949999999999" as="targetPoint"/>
                        <mxPoint as="offset"/>
                    </mxGeometry>
                </mxCell>
                <mxCell id="53" value="true" style="html=1;verticalAlign=bottom;labelBackgroundColor=none;endArrow=block;endFill=1;fontColor=#080808;strokeColor=#0A0A0A;exitX=1;exitY=0.891;exitDx=0;exitDy=0;exitPerimeter=0;" edge="1" parent="1" source="46" target="11">
                    <mxGeometry x="0.0609" width="160" relative="1" as="geometry">
                        <mxPoint x="100" y="448" as="sourcePoint"/>
                        <mxPoint x="225" y="448" as="targetPoint"/>
                        <mxPoint as="offset"/>
                    </mxGeometry>
                </mxCell>
                <mxCell id="55" value="" style="html=1;verticalAlign=bottom;labelBackgroundColor=none;endArrow=block;endFill=1;fontColor=#080808;strokeColor=#0A0A0A;startArrow=none;" edge="1" parent="1">
                    <mxGeometry x="0.0435" y="8" width="160" relative="1" as="geometry">
                        <mxPoint x="475" y="741" as="sourcePoint"/>
                        <mxPoint x="90" y="741" as="targetPoint"/>
                        <mxPoint as="offset"/>
                        <Array as="points">
                            <mxPoint x="240" y="741"/>
                        </Array>
                    </mxGeometry>
                </mxCell>
                <mxCell id="62" value="" style="html=1;verticalAlign=bottom;labelBackgroundColor=none;endArrow=oval;endFill=0;endSize=8;fontColor=#080808;strokeColor=#0A0A0A;" edge="1" parent="1">
                    <mxGeometry width="160" relative="1" as="geometry">
                        <mxPoint x="746.5" y="460" as="sourcePoint"/>
                        <mxPoint x="697" y="460" as="targetPoint"/>
                        <Array as="points"/>
                    </mxGeometry>
                </mxCell>
                <mxCell id="63" value="" style="html=1;verticalAlign=bottom;labelBackgroundColor=none;endArrow=halfCircle;endFill=0;endSize=2;fontColor=#080808;strokeColor=#0A0A0A;" edge="1" parent="1">
                    <mxGeometry width="160" relative="1" as="geometry">
                        <mxPoint x="657" y="460" as="sourcePoint"/>
                        <mxPoint x="690.5" y="459.9" as="targetPoint"/>
                    </mxGeometry>
                </mxCell>
                <mxCell id="64" value="writeFile(handle, message, ...)" style="html=1;verticalAlign=bottom;labelBackgroundColor=none;endArrow=block;endFill=1;fontColor=#080808;strokeColor=#0A0A0A;exitX=0.9;exitY=0.208;exitDx=0;exitDy=0;exitPerimeter=0;" edge="1" parent="1">
                    <mxGeometry x="1" y="22" width="160" relative="1" as="geometry">
                        <mxPoint x="700" y="459.5" as="sourcePoint"/>
                        <mxPoint x="730" y="460" as="targetPoint"/>
                        <mxPoint x="10" y="2" as="offset"/>
                    </mxGeometry>
                </mxCell>
                <mxCell id="65" value="" style="html=1;verticalAlign=bottom;labelBackgroundColor=none;endArrow=halfCircle;endFill=0;endSize=2;fontColor=#080808;strokeColor=#0A0A0A;exitX=1.022;exitY=0.949;exitDx=0;exitDy=0;exitPerimeter=0;" edge="1" parent="1">
                    <mxGeometry width="160" relative="1" as="geometry">
                        <mxPoint x="655.98" y="600.0699999999999" as="sourcePoint"/>
                        <mxPoint x="689" y="600" as="targetPoint"/>
                    </mxGeometry>
                </mxCell>
                <mxCell id="66" value="" style="html=1;verticalAlign=bottom;labelBackgroundColor=none;endArrow=oval;endFill=0;endSize=8;fontColor=#080808;strokeColor=#0A0A0A;exitX=-0.1;exitY=0.5;exitDx=0;exitDy=0;exitPerimeter=0;" edge="1" parent="1" source="61">
                    <mxGeometry width="160" relative="1" as="geometry">
                        <mxPoint x="740" y="600" as="sourcePoint"/>
                        <mxPoint x="695" y="600" as="targetPoint"/>
                        <Array as="points"/>
                    </mxGeometry>
                </mxCell>
                <mxCell id="67" value="readFiile(handle, message, messageSize" style="html=1;verticalAlign=bottom;labelBackgroundColor=none;endArrow=block;endFill=1;fontColor=#080808;strokeColor=#0A0A0A;" edge="1" parent="1">
                    <mxGeometry x="1" y="36" width="160" relative="1" as="geometry">
                        <mxPoint x="700" y="600" as="sourcePoint"/>
                        <mxPoint x="730" y="600" as="targetPoint"/>
                        <mxPoint x="30" y="16" as="offset"/>
                    </mxGeometry>
                </mxCell>
                <mxCell id="68" value="" style="html=1;verticalAlign=bottom;labelBackgroundColor=none;endArrow=halfCircle;endFill=0;endSize=2;fontColor=#080808;strokeColor=#0A0A0A;exitX=0.1;exitY=0.433;exitDx=0;exitDy=0;exitPerimeter=0;" edge="1" parent="1">
                    <mxGeometry width="160" relative="1" as="geometry">
                        <mxPoint x="747" y="532.99" as="sourcePoint"/>
                        <mxPoint x="700" y="533" as="targetPoint"/>
                    </mxGeometry>
                </mxCell>
                <mxCell id="69" value="" style="html=1;verticalAlign=bottom;labelBackgroundColor=none;endArrow=oval;endFill=0;endSize=8;fontColor=#080808;strokeColor=#0A0A0A;exitX=1.056;exitY=0.8;exitDx=0;exitDy=0;exitPerimeter=0;" edge="1" parent="1">
                    <mxGeometry width="160" relative="1" as="geometry">
                        <mxPoint x="654.04" y="533" as="sourcePoint"/>
                        <mxPoint x="694" y="533" as="targetPoint"/>
                        <Array as="points"/>
                    </mxGeometry>
                </mxCell>
                <mxCell id="70" value="onTick" style="html=1;verticalAlign=bottom;labelBackgroundColor=none;endArrow=block;endFill=1;fontColor=#080808;strokeColor=#0A0A0A;" edge="1" parent="1">
                    <mxGeometry y="-23" width="160" relative="1" as="geometry">
                        <mxPoint x="740" y="533" as="sourcePoint"/>
                        <mxPoint x="720" y="533" as="targetPoint"/>
                        <mxPoint as="offset"/>
                    </mxGeometry>
                </mxCell>
                <mxCell id="46" value="" style="html=1;points=[];perimeter=orthogonalPerimeter;fillColor=#808080;labelBackgroundColor=#FCFCFC;fontColor=#050505;strokeColor=#080808;" vertex="1" parent="1">
                    <mxGeometry x="215" y="660" width="10" height="55" as="geometry"/>
                </mxCell>
                <mxCell id="52" value="" style="html=1;points=[];perimeter=orthogonalPerimeter;fillColor=#808080;labelBackgroundColor=#FCFCFC;fontColor=#050505;strokeColor=#080808;" vertex="1" parent="1">
                    <mxGeometry x="475" y="700" width="10" height="55" as="geometry"/>
                </mxCell>
                <mxCell id="72" value="" style="html=1;verticalAlign=bottom;labelBackgroundColor=none;endArrow=none;endFill=1;fontColor=#080808;strokeColor=#0A0A0A;startArrow=none;entryX=1.3;entryY=0.063;entryDx=0;entryDy=0;entryPerimeter=0;" edge="1" parent="1" source="11" target="52">
                    <mxGeometry x="0.0435" y="8" width="160" relative="1" as="geometry">
                        <mxPoint x="479.5" y="735.04" as="sourcePoint"/>
                        <mxPoint x="98" y="735.04" as="targetPoint"/>
                        <mxPoint as="offset"/>
                    </mxGeometry>
                </mxCell>
            </root>
        </mxGraphModel>
    </diagram>
</mxfile>